<?xml version="1.0" encoding="utf-8"?>
<!-- Generator: Adobe Illustrator 26.3.1, SVG Export Plug-In . SVG Version: 6.00 Build 0)  -->
<svg version="1.1" id="Layer_1" xmlns="http://www.w3.org/2000/svg" xmlns:xlink="http://www.w3.org/1999/xlink" x="0px" y="0px"
	 viewBox="0 0 17 17" style="enable-background:new 0 0 17 17;" xml:space="preserve">
<style type="text/css">
	.st0{fill:#241C15;}
</style>
<path class="st0" d="M8.5,0C3.8,0,0,3.8,0,8.5c0,3.6,2.2,6.7,5.4,7.9c-0.1-0.7-0.1-1.7,0-2.4c0.2-0.7,1-4.2,1-4.2S6.2,9.2,6.2,8.5
	c0-1.2,0.7-2.1,1.5-2.1c0.7,0,1.1,0.5,1.1,1.2c0,0.7-0.5,1.8-0.7,2.8C7.9,11.3,8.5,12,9.3,12c1.5,0,2.7-1.6,2.7-3.9
	c0-2-1.5-3.5-3.6-3.5C6,4.7,4.6,6.5,4.6,8.3c0,0.7,0.3,1.5,0.6,1.9c0.1,0.1,0.1,0.2,0.1,0.2c-0.1,0.3-0.2,0.8-0.2,1
	c0,0.2-0.1,0.2-0.3,0.1c-1.1-0.5-1.7-2-1.7-3.3c0-2.7,1.9-5.1,5.6-5.1c2.9,0,5.2,2.1,5.2,4.9c0,2.9-1.8,5.3-4.4,5.3
	c-0.9,0-1.7-0.4-1.9-1l-0.5,2c-0.2,0.7-0.7,1.7-1.1,2.2C6.8,16.9,7.6,17,8.5,17c4.7,0,8.5-3.8,8.5-8.5C17,3.8,13.2,0,8.5,0z"/>
</svg>
